<mxfile host="app.diagrams.net" modified="2021-02-24T09:13:12.022Z" agent="5.0 (X11; Linux x86_64) AppleWebKit/537.36 (KHTML, like Gecko) Chrome/88.0.4324.182 Safari/537.36" etag="n2t2RBsx0JV350b0BAca" version="14.3.1" type="github">
  <diagram id="sbSDqoaeHESxKlhMGHkl" name="Page-1">
    <mxGraphModel dx="1355" dy="713" grid="1" gridSize="10" guides="1" tooltips="1" connect="1" arrows="1" fold="1" page="1" pageScale="1" pageWidth="827" pageHeight="1169" math="0" shadow="0">
      <root>
        <mxCell id="0" />
        <mxCell id="1" parent="0" />
        <mxCell id="QKNtH6ZPQjS2p7ApeiLR-1" value="" style="ellipse;whiteSpace=wrap;html=1;aspect=fixed;fillColor=#A9C4EB;strokeColor=none;" vertex="1" parent="1">
          <mxGeometry x="60" y="310" width="40" height="40" as="geometry" />
        </mxCell>
        <mxCell id="QKNtH6ZPQjS2p7ApeiLR-2" value="" style="ellipse;whiteSpace=wrap;html=1;aspect=fixed;strokeColor=none;fillColor=#FF99CC;" vertex="1" parent="1">
          <mxGeometry x="720" y="310" width="40" height="40" as="geometry" />
        </mxCell>
        <mxCell id="QKNtH6ZPQjS2p7ApeiLR-3" value="" style="rounded=0;whiteSpace=wrap;html=1;strokeColor=none;fillColor=#660000;" vertex="1" parent="1">
          <mxGeometry x="320" y="260" width="220" height="20" as="geometry" />
        </mxCell>
        <mxCell id="QKNtH6ZPQjS2p7ApeiLR-5" value="" style="rounded=0;whiteSpace=wrap;html=1;strokeColor=none;fillColor=#660000;" vertex="1" parent="1">
          <mxGeometry x="320" y="380" width="220" height="20" as="geometry" />
        </mxCell>
        <mxCell id="QKNtH6ZPQjS2p7ApeiLR-6" value="" style="endArrow=none;html=1;exitX=1;exitY=0.5;exitDx=0;exitDy=0;entryX=0;entryY=0.5;entryDx=0;entryDy=0;strokeWidth=4;strokeColor=#FFD966;" edge="1" parent="1" source="QKNtH6ZPQjS2p7ApeiLR-7" target="QKNtH6ZPQjS2p7ApeiLR-2">
          <mxGeometry width="50" height="50" relative="1" as="geometry">
            <mxPoint x="390" y="390" as="sourcePoint" />
            <mxPoint x="440" y="340" as="targetPoint" />
          </mxGeometry>
        </mxCell>
        <mxCell id="QKNtH6ZPQjS2p7ApeiLR-4" value="" style="rounded=0;whiteSpace=wrap;html=1;strokeColor=none;fillColor=#660000;" vertex="1" parent="1">
          <mxGeometry x="520" y="280" width="20" height="105" as="geometry" />
        </mxCell>
        <mxCell id="QKNtH6ZPQjS2p7ApeiLR-7" value="" style="ellipse;whiteSpace=wrap;html=1;aspect=fixed;strokeColor=none;fillColor=#0000FF;" vertex="1" parent="1">
          <mxGeometry x="270" y="317.5" width="25" height="25" as="geometry" />
        </mxCell>
        <mxCell id="QKNtH6ZPQjS2p7ApeiLR-8" value="" style="endArrow=none;html=1;exitX=1;exitY=0.5;exitDx=0;exitDy=0;entryX=0;entryY=0.5;entryDx=0;entryDy=0;strokeWidth=4;strokeColor=#FFD966;" edge="1" parent="1" source="QKNtH6ZPQjS2p7ApeiLR-1" target="QKNtH6ZPQjS2p7ApeiLR-7">
          <mxGeometry width="50" height="50" relative="1" as="geometry">
            <mxPoint x="100" y="330" as="sourcePoint" />
            <mxPoint x="720" y="330" as="targetPoint" />
          </mxGeometry>
        </mxCell>
        <mxCell id="QKNtH6ZPQjS2p7ApeiLR-9" value="" style="ellipse;whiteSpace=wrap;html=1;aspect=fixed;fillColor=none;" vertex="1" parent="1">
          <mxGeometry x="242.5" y="290" width="80" height="80" as="geometry" />
        </mxCell>
      </root>
    </mxGraphModel>
  </diagram>
</mxfile>
